<svg width="50" height="50" viewBox="0 0 50 50" fill="none" xmlns="http://www.w3.org/2000/svg">
<circle cx="25" cy="25" r="25" fill="black"/>
<path d="M36.3857 31.0733C36.1308 30.8018 35.2309 29.9991 33.5766 28.9371C31.9101 27.8658 30.6811 27.1978 30.3286 27.042C30.2975 27.0283 30.2633 27.0232 30.2295 27.0274C30.1958 27.0316 30.1639 27.045 30.1372 27.066C29.5693 27.5088 28.6132 28.3223 28.562 28.3663C28.2309 28.65 28.2309 28.65 27.9599 28.5616C27.4834 28.4053 26.0029 27.6192 24.7129 26.3262C23.4228 25.0333 22.5962 23.5162 22.4399 23.0401C22.3505 22.7686 22.3505 22.7686 22.6352 22.4376C22.6792 22.3863 23.4931 21.4302 23.936 20.8628C23.957 20.8361 23.9703 20.8042 23.9745 20.7705C23.9788 20.7367 23.9737 20.7025 23.9599 20.6714C23.8042 20.3184 23.1362 19.0899 22.0649 17.4234C21.0014 15.7696 20.1997 14.8697 19.9282 14.6148C19.9033 14.5913 19.8725 14.5749 19.8391 14.5675C19.8056 14.56 19.7708 14.5617 19.7382 14.5723C18.7893 14.8984 17.8736 15.3146 17.0039 15.815C16.1642 16.3031 15.3693 16.8644 14.6284 17.4922C14.6025 17.5142 14.5831 17.5428 14.5723 17.575C14.5614 17.6072 14.5596 17.6417 14.5669 17.6749C14.6689 18.1504 15.1567 20.1358 16.6704 22.8858C18.2148 25.6924 19.2851 27.1304 21.5532 29.3907C23.8213 31.6509 25.3047 32.7857 28.1142 34.3301C30.8642 35.8438 32.8505 36.3321 33.3252 36.4332C33.3584 36.4404 33.393 36.4385 33.4252 36.4276C33.4574 36.4168 33.4861 36.3975 33.5083 36.3716C34.136 35.6307 34.6971 34.8358 35.185 33.9961C35.6854 33.1263 36.1015 32.2107 36.4277 31.2618C36.4381 31.2295 36.4397 31.195 36.4324 31.1618C36.425 31.1287 36.4089 31.0981 36.3857 31.0733Z" fill="white"/>
</svg>
