<svg width="80" height="80" viewBox="0 0 80 80" fill="none" xmlns="http://www.w3.org/2000/svg">
<path d="M40 80C62.0914 80 80 62.0914 80 40C80 17.9086 62.0914 0 40 0C17.9086 0 0 17.9086 0 40C0 62.0914 17.9086 80 40 80Z" fill="black"/>
<mask id="mask0_351_26" style="mask-type:luminance" maskUnits="userSpaceOnUse" x="17" y="17" width="45" height="45">
<path d="M62 17H17V62H62V17Z" fill="white"/>
</mask>
<g mask="url(#mask0_351_26)">
<path fill-rule="evenodd" clip-rule="evenodd" d="M39.4582 21.8214C38.1145 21.7972 36.7793 22.0381 35.5288 22.5305C34.2783 23.0229 33.1372 23.757 32.1708 24.6909C31.2044 25.6247 30.4316 26.74 29.8968 27.9729C29.3619 29.2057 29.0753 30.532 29.0536 31.8757V45.9286C29.0536 46.781 28.7149 47.5986 28.1121 48.2014C27.5093 48.8042 26.6918 49.1429 25.8393 49.1429H21.8214C20.5427 49.1429 19.3164 48.6349 18.4122 47.7307C17.508 46.8265 17 45.6001 17 44.3214V37.8929C17 36.6141 17.508 35.3878 18.4122 34.4836C19.3164 33.5794 20.5427 33.0714 21.8214 33.0714H24.2321V31.8179C24.2615 29.8423 24.6797 27.8919 25.4629 26.0781C26.2461 24.2642 27.3789 22.6224 28.7967 21.2464C30.2145 19.8703 31.8895 18.7871 33.726 18.0585C35.5625 17.3299 37.5245 16.9702 39.5 17C41.4755 16.9702 43.4375 17.3299 45.274 18.0585C47.1105 18.7871 48.7855 19.8703 50.2033 21.2464C51.6211 22.6224 52.7539 24.2642 53.5371 26.0781C54.3203 27.8919 54.7385 29.8423 54.7679 31.8179V33.0714H57.1786C58.4573 33.0714 59.6836 33.5794 60.5878 34.4836C61.492 35.3878 62 36.6141 62 37.8929V44.3214C62 45.6001 61.492 46.8265 60.5878 47.7307C59.6836 48.6349 58.4573 49.1429 57.1786 49.1429H54.7679V50.75C54.7683 52.9221 53.9689 55.0183 52.5223 56.6386C51.0758 58.2588 49.0832 59.2898 46.925 59.5346C46.5059 60.283 45.8947 60.9059 45.1545 61.3393C44.4144 61.7727 43.572 62.0007 42.7143 62H37.8929C36.6141 62 35.3878 61.492 34.4836 60.5878C33.5794 59.6836 33.0714 58.4573 33.0714 57.1786C33.0714 55.8998 33.5794 54.6735 34.4836 53.7693C35.3878 52.8651 36.6141 52.3571 37.8929 52.3571H42.7143C44.4564 52.3571 45.9832 53.2796 46.8286 54.665C47.7145 54.4614 48.5052 53.9633 49.0715 53.2522C49.6378 52.5412 49.9463 51.659 49.9464 50.75V31.8725C49.9244 30.5219 49.6348 29.189 49.0945 27.9509C48.5542 26.7129 47.7739 25.5942 46.7986 24.6595C45.8233 23.7249 44.6724 22.9929 43.4125 22.5057C42.1526 22.0186 40.8086 21.786 39.4582 21.8214Z" fill="white"/>
</g>
</svg>
