<svg width="80" height="80" viewBox="0 0 80 80" fill="none" xmlns="http://www.w3.org/2000/svg">
<path d="M40 80C62.0914 80 80 62.0914 80 40C80 17.9086 62.0914 0 40 0C17.9086 0 0 17.9086 0 40C0 62.0914 17.9086 80 40 80Z" fill="black"/>
<path d="M40.7391 27.9906L33.9328 33.5031C32.8008 34.4172 32.5828 36.0625 33.4406 37.2367C34.3477 38.4883 36.1125 38.7344 37.3289 37.7852L44.3109 32.357C44.8031 31.9773 45.5063 32.0617 45.893 32.5539C46.2797 33.0461 46.1883 33.7492 45.6961 34.1359L44.2266 35.275L54 44.275V31H53.9508L53.6766 30.8242L48.5719 27.5547C47.4961 26.8656 46.2375 26.5 44.9578 26.5C43.425 26.5 41.9344 27.0273 40.7391 27.9906ZM42.3422 36.7375L38.707 39.5641C36.4922 41.2937 33.2789 40.8438 31.6195 38.5656C30.0586 36.4211 30.4523 33.4258 32.5125 31.7594L38.3625 27.0273C37.5469 26.6828 36.668 26.507 35.775 26.507C34.4531 26.5 33.1664 26.8938 32.0625 27.625L27 31V46.75H28.9828L35.4094 52.6141C36.7875 53.8727 38.918 53.7742 40.1766 52.3961C40.5633 51.9672 40.8234 51.468 40.957 50.9477L42.1523 52.0445C43.5234 53.3031 45.6609 53.2117 46.9195 51.8406C47.2359 51.4961 47.468 51.0953 47.6156 50.6805C48.9797 51.5945 50.8359 51.4047 51.982 50.1531C53.2406 48.782 53.1492 46.6445 51.7781 45.3859L42.3422 36.7375ZM19.125 31C18.5062 31 18 31.5062 18 32.125V46.75C18 47.9945 19.0055 49 20.25 49H22.5C23.7445 49 24.75 47.9945 24.75 46.75V31H19.125ZM21.375 44.5C21.6734 44.5 21.9595 44.6185 22.1705 44.8295C22.3815 45.0405 22.5 45.3266 22.5 45.625C22.5 45.9234 22.3815 46.2095 22.1705 46.4205C21.9595 46.6315 21.6734 46.75 21.375 46.75C21.0766 46.75 20.7905 46.6315 20.5795 46.4205C20.3685 46.2095 20.25 45.9234 20.25 45.625C20.25 45.3266 20.3685 45.0405 20.5795 44.8295C20.7905 44.6185 21.0766 44.5 21.375 44.5ZM56.25 31V46.75C56.25 47.9945 57.2555 49 58.5 49H60.75C61.9945 49 63 47.9945 63 46.75V32.125C63 31.5062 62.4938 31 61.875 31H56.25ZM58.5 45.625C58.5 45.3266 58.6185 45.0405 58.8295 44.8295C59.0405 44.6185 59.3266 44.5 59.625 44.5C59.9234 44.5 60.2095 44.6185 60.4205 44.8295C60.6315 45.0405 60.75 45.3266 60.75 45.625C60.75 45.9234 60.6315 46.2095 60.4205 46.4205C60.2095 46.6315 59.9234 46.75 59.625 46.75C59.3266 46.75 59.0405 46.6315 58.8295 46.4205C58.6185 46.2095 58.5 45.9234 58.5 45.625Z" fill="white"/>
</svg>
