<svg width="80" height="80" viewBox="0 0 80 80" fill="none" xmlns="http://www.w3.org/2000/svg">
<circle cx="40" cy="40" r="40" fill="black"/>
<g clip-path="url(#clip0_487_149)">
<path fill-rule="evenodd" clip-rule="evenodd" d="M40.4582 22.8214C39.1145 22.7972 37.7793 23.0381 36.5288 23.5305C35.2783 24.0229 34.1372 24.757 33.1708 25.6909C32.2044 26.6247 31.4316 27.74 30.8968 28.9729C30.3619 30.2057 30.0753 31.532 30.0536 32.8757V46.9286C30.0536 47.781 29.7149 48.5986 29.1121 49.2014C28.5093 49.8042 27.6918 50.1429 26.8393 50.1429H22.8214C21.5427 50.1429 20.3164 49.6349 19.4122 48.7307C18.508 47.8265 18 46.6001 18 45.3214V38.8929C18 37.6141 18.508 36.3878 19.4122 35.4836C20.3164 34.5794 21.5427 34.0714 22.8214 34.0714H25.2321V32.8179C25.2615 30.8423 25.6797 28.8919 26.4629 27.0781C27.2461 25.2642 28.3789 23.6224 29.7967 22.2464C31.2145 20.8703 32.8895 19.7871 34.726 19.0585C36.5625 18.3299 38.5245 17.9702 40.5 18C42.4755 17.9702 44.4375 18.3299 46.274 19.0585C48.1105 19.7871 49.7855 20.8703 51.2033 22.2464C52.6211 23.6224 53.7539 25.2642 54.5371 27.0781C55.3203 28.8919 55.7385 30.8423 55.7679 32.8179V34.0714H58.1786C59.4573 34.0714 60.6836 34.5794 61.5878 35.4836C62.492 36.3878 63 37.6141 63 38.8929V45.3214C63 46.6001 62.492 47.8265 61.5878 48.7307C60.6836 49.6349 59.4573 50.1429 58.1786 50.1429H55.7679V51.75C55.7683 53.9221 54.9689 56.0183 53.5223 57.6386C52.0758 59.2588 50.0832 60.2898 47.925 60.5346C47.5059 61.283 46.8947 61.9059 46.1545 62.3393C45.4144 62.7727 44.572 63.0007 43.7143 63H38.8929C37.6141 63 36.3878 62.492 35.4836 61.5878C34.5794 60.6836 34.0714 59.4573 34.0714 58.1786C34.0714 56.8998 34.5794 55.6735 35.4836 54.7693C36.3878 53.8651 37.6141 53.3571 38.8929 53.3571H43.7143C45.4564 53.3571 46.9832 54.2796 47.8286 55.665C48.7145 55.4614 49.5052 54.9633 50.0715 54.2522C50.6378 53.5412 50.9463 52.659 50.9464 51.75V32.8725C50.9244 31.5219 50.6348 30.189 50.0945 28.9509C49.5542 27.7129 48.7739 26.5942 47.7986 25.6595C46.8233 24.7249 45.6724 23.9929 44.4125 23.5057C43.1526 23.0186 41.8086 22.786 40.4582 22.8214Z" fill="white"/>
</g>
<defs>
<clipPath id="clip0_487_149">
<rect width="45" height="45" fill="white" transform="translate(18 18)"/>
</clipPath>
</defs>
</svg>
