<svg width="80" height="80" viewBox="0 0 80 80" fill="none" xmlns="http://www.w3.org/2000/svg">
<circle cx="40" cy="40" r="40" fill="black"/>
<path d="M40.5 19.875L23.625 27.375V38.625C23.625 49.0312 30.825 58.7625 40.5 61.125C50.175 58.7625 57.375 49.0312 57.375 38.625V27.375L40.5 19.875ZM40.5 31.125C43.125 31.125 45.75 33.1875 45.75 35.8125V38.625C46.875 38.625 48 39.75 48 41.0625V47.625C48 48.75 46.875 49.875 45.5625 49.875H35.25C34.125 49.875 33 48.75 33 47.4375V40.875C33 39.75 34.125 38.625 35.25 38.625V35.8125C35.25 33.1875 37.875 31.125 40.5 31.125ZM40.5 33.375C39 33.375 37.6875 34.3125 37.6875 35.8125V38.625H43.3125V35.8125C43.3125 34.3125 42 33.375 40.5 33.375Z" fill="white"/>
</svg>
