<svg width="80" height="80" viewBox="0 0 80 80" fill="none" xmlns="http://www.w3.org/2000/svg">
<circle cx="40" cy="40" r="40" fill="black"/>
<path d="M40.0526 36.5439C41.9138 36.5439 43.6988 35.8045 45.0148 34.4885C46.3308 33.1724 47.0702 31.3875 47.0702 29.5263C47.0702 27.6652 46.3308 25.8802 45.0148 24.5642C43.6988 23.2481 41.9138 22.5088 40.0526 22.5088C38.1915 22.5088 36.4065 23.2481 35.0905 24.5642C33.7745 25.8802 33.0351 27.6652 33.0351 29.5263C33.0351 31.3875 33.7745 33.1724 35.0905 34.4885C36.4065 35.8045 38.1915 36.5439 40.0526 36.5439ZM28.6491 41.807C29.8124 41.807 30.928 41.3449 31.7505 40.5224C32.573 39.6999 33.0351 38.5843 33.0351 37.4211C33.0351 36.2578 32.573 35.1423 31.7505 34.3197C30.928 33.4972 29.8124 33.0351 28.6491 33.0351C27.4859 33.0351 26.3703 33.4972 25.5478 34.3197C24.7253 35.1423 24.2632 36.2578 24.2632 37.4211C24.2632 38.5843 24.7253 39.6999 25.5478 40.5224C26.3703 41.3449 27.4859 41.807 28.6491 41.807ZM55.8421 37.4211C55.8421 38.5843 55.38 39.6999 54.5575 40.5224C53.735 41.3449 52.6194 41.807 51.4562 41.807C50.2929 41.807 49.1773 41.3449 48.3548 40.5224C47.5323 39.6999 47.0702 38.5843 47.0702 37.4211C47.0702 36.2578 47.5323 35.1423 48.3548 34.3197C49.1773 33.4972 50.2929 33.0351 51.4562 33.0351C52.6194 33.0351 53.735 33.4972 54.5575 34.3197C55.38 35.1423 55.8421 36.2578 55.8421 37.4211ZM40.0526 38.2983C42.3791 38.2983 44.6103 39.2224 46.2553 40.8675C47.9004 42.5126 48.8246 44.7437 48.8246 47.0702V57.5965H31.2807V47.0702C31.2807 44.7437 32.2049 42.5126 33.85 40.8675C35.495 39.2224 37.7262 38.2983 40.0526 38.2983ZM27.7719 47.0702C27.7719 45.8544 27.9474 44.6807 28.2772 43.5719L27.979 43.5965C26.4752 43.7616 25.0854 44.476 24.0759 45.6027C23.0664 46.7293 22.5084 48.189 22.5088 49.7018V57.5965H27.7719V47.0702ZM57.5965 57.5965V49.7018C57.5967 48.1375 56.9999 46.6321 55.9279 45.493C54.8559 44.3538 53.3895 43.6667 51.8281 43.5719C52.1562 44.6807 52.3334 45.8544 52.3334 47.0702V57.5965H57.5965Z" fill="white"/>
</svg>
