<svg width="22" height="22" viewBox="0 0 22 22" fill="none" xmlns="http://www.w3.org/2000/svg">
<path d="M3.66683 18.3334C3.16266 18.3334 2.73122 18.1541 2.3725 17.7953C2.01377 17.4366 1.83411 17.0049 1.8335 16.5001V5.50008C1.8335 4.99591 2.01316 4.56447 2.3725 4.20575C2.73183 3.84703 3.16327 3.66736 3.66683 3.66675H18.3335C18.8377 3.66675 19.2694 3.84641 19.6287 4.20575C19.9881 4.56508 20.1674 4.99653 20.1668 5.50008V16.5001C20.1668 17.0042 19.9875 17.436 19.6287 17.7953C19.27 18.1547 18.8383 18.334 18.3335 18.3334H3.66683ZM11.0002 11.9167L18.3335 7.33341V5.50008L11.0002 10.0834L3.66683 5.50008V7.33341L11.0002 11.9167Z" fill="white"/>
</svg>
