<svg width="19" height="17" viewBox="0 0 19 17" fill="none" xmlns="http://www.w3.org/2000/svg">
<path d="M18.1468 1.95591L12.6468 16.1642C12.5924 16.305 12.5041 16.4301 12.3897 16.5285C12.2754 16.6269 12.1385 16.6956 11.9912 16.7284C11.844 16.7612 11.6909 16.7572 11.5456 16.7167C11.4002 16.6761 11.2672 16.6004 11.1581 16.4961L8.05798 13.5307L6.15681 15.4309C6.09266 15.4949 6.011 15.5384 5.92214 15.5559C5.83328 15.5735 5.7412 15.5644 5.65754 15.5296C5.57388 15.4949 5.50238 15.4362 5.45208 15.3609C5.40177 15.2855 5.37491 15.197 5.37489 15.1064V10.964L0.616476 6.41274C0.498412 6.29979 0.412685 6.15733 0.368171 6.00012C0.323656 5.84291 0.321972 5.67665 0.363292 5.51857C0.404612 5.36049 0.487435 5.21632 0.603186 5.101C0.718936 4.98568 0.863407 4.90339 1.02164 4.86266L17.0633 0.737658C17.2264 0.695879 17.3978 0.699822 17.5588 0.749053C17.7198 0.798283 17.8642 0.890901 17.976 1.01675C18.0878 1.14259 18.1628 1.29681 18.1928 1.46247C18.2228 1.62814 18.2065 1.79886 18.1459 1.95591H18.1468ZM15.9166 3.00091L5.86256 9.55599L7.45298 11.0777L15.9166 3.00091Z" fill="white"/>
</svg>
