<svg width="38" height="38" viewBox="0 0 38 38" fill="none" xmlns="http://www.w3.org/2000/svg">
<rect width="38" height="38" rx="19" fill="black"/>
<path d="M26.8609 13.0508L21.8609 25.9675C21.8115 26.0954 21.7312 26.2091 21.6272 26.2986C21.5233 26.3881 21.3988 26.4505 21.2649 26.4803C21.1311 26.5102 20.9919 26.5065 20.8598 26.4697C20.7277 26.4328 20.6067 26.364 20.5076 26.2691L17.6892 23.5733L15.9609 25.3008C15.9026 25.3589 15.8284 25.3985 15.7476 25.4145C15.6668 25.4304 15.5831 25.4221 15.507 25.3906C15.431 25.359 15.366 25.3056 15.3202 25.2371C15.2745 25.1686 15.2501 25.0882 15.2501 25.0058V21.24L10.9242 17.1025C10.8169 16.9998 10.739 16.8703 10.6985 16.7274C10.658 16.5844 10.6565 16.4333 10.6941 16.2896C10.7316 16.1459 10.8069 16.0148 10.9122 15.91C11.0174 15.8051 11.1487 15.7303 11.2926 15.6933L25.8759 11.9433C26.0242 11.9053 26.18 11.9089 26.3264 11.9537C26.4728 11.9984 26.604 12.0826 26.7056 12.197C26.8073 12.3114 26.8755 12.4516 26.9027 12.6022C26.93 12.7528 26.9152 12.908 26.8601 13.0508H26.8609ZM24.8334 14.0008L15.6934 19.96L17.1392 21.3433L24.8334 14.0008Z" fill="white"/>
</svg>
