<svg width="27" height="30" viewBox="0 0 27 30" fill="none" xmlns="http://www.w3.org/2000/svg">
<g clip-path="url(#clip0_69_15)">
<path d="M13.125 15C17.2676 15 20.625 11.6426 20.625 7.5C20.625 3.35742 17.2676 0 13.125 0C8.98242 0 5.625 3.35742 5.625 7.5C5.625 11.6426 8.98242 15 13.125 15ZM18.7383 16.9102L15.9375 28.125L14.0625 20.1562L15.9375 16.875H10.3125L12.1875 20.1562L10.3125 28.125L7.51172 16.9102C3.33398 17.1094 0 20.5254 0 24.75V27.1875C0 28.7402 1.25977 30 2.8125 30H23.4375C24.9902 30 26.25 28.7402 26.25 27.1875V24.75C26.25 20.5254 22.916 17.1094 18.7383 16.9102Z" fill="black"/>
</g>
<defs>
<clipPath id="clip0_69_15">
<rect width="26.25" height="30" fill="white"/>
</clipPath>
</defs>
</svg>
