<svg width="32" height="32" viewBox="0 0 32 32" fill="none" xmlns="http://www.w3.org/2000/svg">
<rect width="32" height="32" rx="5" fill="white"/>
<path fill-rule="evenodd" clip-rule="evenodd" d="M9.55356 4.9054C8.32062 4.9054 7.13814 5.39506 6.26615 6.26672C5.39416 7.13838 4.90404 8.32066 4.90356 9.55361V21.9536C4.90356 23.1869 5.39347 24.3696 6.26552 25.2417C7.13756 26.1137 8.32031 26.6036 9.55356 26.6036H21.9536C23.1865 26.6031 24.3688 26.113 25.2405 25.241C26.1121 24.369 26.6018 23.1866 26.6018 21.9536V9.55361C26.6013 8.32097 26.1114 7.13896 25.2398 6.26735C24.3682 5.39574 23.1862 4.90587 21.9536 4.9054H9.55356ZM23.2911 9.56075C23.2911 9.91595 23.15 10.2566 22.8988 10.5078C22.6476 10.7589 22.307 10.9 21.9518 10.9C21.5966 10.9 21.2559 10.7589 21.0048 10.5078C20.7536 10.2566 20.6125 9.91595 20.6125 9.56075C20.6125 9.20555 20.7536 8.8649 21.0048 8.61373C21.2559 8.36257 21.5966 8.22147 21.9518 8.22147C22.307 8.22147 22.6476 8.36257 22.8988 8.61373C23.15 8.8649 23.2911 9.20555 23.2911 9.56075ZM15.7553 12.0393C14.7703 12.0393 13.8255 12.4306 13.129 13.1272C12.4324 13.8238 12.0411 14.7685 12.0411 15.7536C12.0411 16.7387 12.4324 17.6834 13.129 18.38C13.8255 19.0766 14.7703 19.4679 15.7553 19.4679C16.7404 19.4679 17.6852 19.0766 18.3817 18.38C19.0783 17.6834 19.4696 16.7387 19.4696 15.7536C19.4696 14.7685 19.0783 13.8238 18.3817 13.1272C17.6852 12.4306 16.7404 12.0393 15.7553 12.0393ZM10.2536 15.7536C10.2536 14.2949 10.833 12.896 11.8645 11.8645C12.8959 10.8331 14.2949 10.2536 15.7536 10.2536C17.2123 10.2536 18.6112 10.8331 19.6427 11.8645C20.6741 12.896 21.2536 14.2949 21.2536 15.7536C21.2536 17.2123 20.6741 18.6112 19.6427 19.6427C18.6112 20.6741 17.2123 21.2536 15.7536 21.2536C14.2949 21.2536 12.8959 20.6741 11.8645 19.6427C10.833 18.6112 10.2536 17.2123 10.2536 15.7536Z" fill="black"/>
</svg>
