<svg width="22" height="23" viewBox="0 0 22 23" fill="none" xmlns="http://www.w3.org/2000/svg">
<path d="M20.5794 16.4044C20.3551 16.1655 19.5632 15.4591 18.1074 14.5245C16.6409 13.5818 15.5594 12.994 15.2491 12.8569C15.2218 12.8448 15.1917 12.8403 15.162 12.8441C15.1323 12.8478 15.1042 12.8595 15.0807 12.878C14.581 13.2677 13.7397 13.9836 13.6945 14.0222C13.4032 14.2719 13.4032 14.2719 13.1647 14.1941C12.7454 14.0566 11.4425 13.3648 10.3073 12.227C9.17208 11.0892 8.44462 9.75415 8.30712 9.3352C8.22848 9.09629 8.22848 9.09629 8.47899 8.80497C8.51766 8.75985 9.23395 7.91852 9.62368 7.41922C9.64216 7.39571 9.65389 7.36761 9.6576 7.33793C9.66131 7.30825 9.65686 7.27813 9.64473 7.25079C9.50766 6.94012 8.91985 5.85903 7.97712 4.39251C7.04126 2.93715 6.33571 2.14524 6.0968 1.92094C6.07488 1.90026 6.04778 1.88586 6.01837 1.87928C5.98895 1.87271 5.9583 1.87418 5.92966 1.88356C5.09455 2.17055 4.2888 2.53674 3.52341 2.97712C2.78452 3.40664 2.085 3.90055 1.43298 4.45309C1.41021 4.47244 1.39315 4.49762 1.38361 4.52593C1.37407 4.55424 1.37242 4.58462 1.37883 4.61379C1.46864 5.03231 1.8979 6.77942 3.22993 9.19942C4.58903 11.6693 5.53091 12.9347 7.5268 14.9237C9.5227 16.9127 10.8281 17.9113 13.3005 19.2704C15.7205 20.6025 17.4685 21.0322 17.8861 21.1211C17.9154 21.1275 17.9458 21.1258 17.9742 21.1162C18.0025 21.1067 18.0278 21.0897 18.0473 21.067C18.5997 20.415 19.0935 19.7154 19.5228 18.9765C19.9631 18.2111 20.3293 17.4054 20.6164 16.5703C20.6256 16.5418 20.627 16.5115 20.6205 16.4823C20.614 16.4532 20.5998 16.4263 20.5794 16.4044Z" fill="black"/>
</svg>
