<svg width="80" height="80" viewBox="0 0 80 80" fill="none" xmlns="http://www.w3.org/2000/svg">
<path d="M40 80C62.0914 80 80 62.0914 80 40C80 17.9086 62.0914 0 40 0C17.9086 0 0 17.9086 0 40C0 62.0914 17.9086 80 40 80Z" fill="black"/>
<path d="M25.5 57.375H27.375V33H25.5C24.5054 33 23.5516 33.3951 22.8483 34.0984C22.1451 34.8016 21.75 35.7554 21.75 36.75V53.625C21.75 54.6196 22.1451 55.5734 22.8483 56.2766C23.5516 56.9799 24.5054 57.375 25.5 57.375ZM55.5 33H42.375L44.4788 26.685C44.6665 26.1214 44.7176 25.5213 44.6279 24.934C44.5383 24.3468 44.3104 23.7893 43.9631 23.3074C43.6157 22.8255 43.1589 22.433 42.6302 22.1622C42.1014 21.8914 41.5159 21.7502 40.9219 21.75H40.5L31.125 31.9462V57.375H51.75L59.085 41.2575L59.25 40.5V36.75C59.25 35.7554 58.8549 34.8016 58.1516 34.0984C57.4484 33.3951 56.4946 33 55.5 33Z" fill="white"/>
</svg>
