<svg width="34" height="33" viewBox="0 0 34 33" fill="none" xmlns="http://www.w3.org/2000/svg">
<rect x="0.127441" width="33" height="33" rx="5" fill="white"/>
<path d="M26.2524 4.125C26.9818 4.125 27.6813 4.41473 28.197 4.93046C28.7127 5.44618 29.0024 6.14565 29.0024 6.875V26.125C29.0024 26.8543 28.7127 27.5538 28.197 28.0695C27.6813 28.5853 26.9818 28.875 26.2524 28.875H7.00244C6.2731 28.875 5.57362 28.5853 5.0579 28.0695C4.54217 27.5538 4.25244 26.8543 4.25244 26.125V6.875C4.25244 6.14565 4.54217 5.44618 5.0579 4.93046C5.57362 4.41473 6.2731 4.125 7.00244 4.125H26.2524ZM25.5649 25.4375V18.15C25.5649 16.9612 25.0927 15.821 24.252 14.9804C23.4114 14.1398 22.2713 13.6675 21.0824 13.6675C19.9137 13.6675 18.5524 14.3825 17.8924 15.455V13.9288H14.0562V25.4375H17.8924V18.6587C17.8924 17.6 18.7449 16.7338 19.8037 16.7338C20.3142 16.7338 20.8039 16.9366 21.1649 17.2976C21.5259 17.6586 21.7287 18.1482 21.7287 18.6587V25.4375H25.5649ZM9.58744 11.77C10.2001 11.77 10.7876 11.5266 11.2209 11.0934C11.6541 10.6602 11.8974 10.0727 11.8974 9.46C11.8974 8.18125 10.8662 7.13625 9.58744 7.13625C8.97114 7.13625 8.38009 7.38107 7.9443 7.81686C7.50851 8.25265 7.26369 8.8437 7.26369 9.46C7.26369 10.7387 8.30869 11.77 9.58744 11.77ZM11.4987 25.4375V13.9288H7.68994V25.4375H11.4987Z" fill="black"/>
</svg>
