<svg width="80" height="80" viewBox="0 0 80 80" fill="none" xmlns="http://www.w3.org/2000/svg">
<path d="M40 80C62.0914 80 80 62.0914 80 40C80 17.9086 62.0914 0 40 0C17.9086 0 0 17.9086 0 40C0 62.0914 17.9086 80 40 80Z" fill="black"/>
<mask id="mask0_349_10" style="mask-type:luminance" maskUnits="userSpaceOnUse" x="20" y="20" width="40" height="40">
<path d="M60 20H20V60H60V20Z" fill="white"/>
</mask>
<g mask="url(#mask0_349_10)">
<path d="M33.3359 41.3333V36.552L37.3359 32.552L41.3359 36.552V41.3333H33.3359Z" fill="white"/>
<path fill-rule="evenodd" clip-rule="evenodd" d="M20 37.3333C20.0004 34.5394 20.6761 31.7869 21.9697 29.3104C23.2633 26.8339 25.1363 24.7068 27.4293 23.1104C29.7222 21.514 32.3671 20.4955 35.1386 20.1417C37.9101 19.7879 40.726 20.1094 43.3465 21.0787C45.967 22.0479 48.3143 23.6363 50.1885 25.7084C52.0627 27.7805 53.4082 30.275 54.1103 32.9793C54.8125 35.6836 54.8506 38.5176 54.2212 41.2397C53.5919 43.9619 52.3139 46.4916 50.496 48.6133L59.6107 57.7227L57.7253 59.608L48.6107 50.496C46.0935 52.6525 43.0109 54.0421 39.7281 54.5C36.4453 54.958 33.1 54.4651 30.0888 53.0797C27.0776 51.6944 24.5268 49.4747 22.7387 46.6839C20.9505 43.893 20.0001 40.6479 20 37.3333ZM43.6107 35.056L38.2773 29.7227C38.1535 29.5985 38.0063 29.5 37.8444 29.4328C37.6824 29.3655 37.5087 29.3309 37.3333 29.3309C37.158 29.3309 36.9843 29.3655 36.8223 29.4328C36.6603 29.5 36.5132 29.5985 36.3893 29.7227L31.056 35.056C30.9323 35.18 30.8342 35.3273 30.7674 35.4892C30.7006 35.6512 30.6664 35.8248 30.6667 36V42.6667C30.6667 43.0203 30.8071 43.3594 31.0572 43.6095C31.3072 43.8595 31.6464 44 32 44H42.6667C43.0203 44 43.3594 43.8595 43.6095 43.6095C43.8595 43.3594 44 43.0203 44 42.6667V36C44.0003 35.8248 43.9661 35.6512 43.8993 35.4892C43.8325 35.3273 43.7344 35.18 43.6107 35.056Z" fill="white"/>
</g>
</svg>
