<svg width="33" height="33" viewBox="0 0 33 33" fill="none" xmlns="http://www.w3.org/2000/svg">
<rect x="0.691162" width="32.3088" height="32.3088" rx="5" fill="white"/>
<mask id="mask0_94_376" style="mask-type:luminance" maskUnits="userSpaceOnUse" x="5" y="4" width="23" height="23">
<path d="M5 4H28V27H5V4Z" fill="white"/>
</mask>
<g mask="url(#mask0_94_376)">
<path d="M18.6668 4.16939L17.9768 4.07254C15.9031 3.77313 13.787 4.06934 11.8752 4.92665C9.96343 5.78396 8.33471 7.16704 7.17895 8.91465C5.94924 10.5852 5.21618 12.5689 5.06413 14.6376C4.91208 16.7064 5.34722 18.776 6.31947 20.6083C6.41898 20.792 6.48092 20.9936 6.50171 21.2014C6.52249 21.4093 6.50169 21.6191 6.44053 21.8189C5.94421 23.5257 5.48421 25.2447 5 27.0483L5.60526 26.8668C7.23947 26.431 8.87368 25.9952 10.5079 25.5957C10.8528 25.524 11.2114 25.5577 11.5368 25.6925C13.003 26.4081 14.6053 26.8018 16.2362 26.8471C17.867 26.8925 19.4887 26.5885 20.9924 25.9555C22.4961 25.3225 23.847 24.3752 24.9544 23.1772C26.0619 21.9792 26.9003 20.5581 27.4133 19.0094C27.9264 17.4607 28.1022 15.8201 27.929 14.1979C27.7559 12.5756 27.2377 11.0092 26.4093 9.60363C25.5809 8.1981 24.4615 6.98603 23.1261 6.04876C21.7907 5.11148 20.2703 4.47069 18.6668 4.16939ZM21.7174 20.0515C21.2774 20.4454 20.7409 20.7156 20.1625 20.8347C19.5841 20.9538 18.9845 20.9175 18.4247 20.7294C15.8882 20.0151 13.6875 18.4236 12.2147 16.2383C11.6522 15.4654 11.2 14.618 10.8711 13.7204C10.6929 13.1996 10.6608 12.64 10.7782 12.1023C10.8955 11.5645 11.1579 11.0691 11.5368 10.6699C11.7213 10.4345 11.9724 10.2601 12.2574 10.1694C12.5424 10.0787 12.8481 10.0759 13.1347 10.1615C13.3768 10.222 13.5463 10.5731 13.7642 10.8394C13.9409 11.3393 14.1479 11.8284 14.3816 12.3041C14.5588 12.5468 14.6329 12.8498 14.5875 13.1469C14.5421 13.444 14.3811 13.7111 14.1395 13.8899C13.5947 14.3741 13.6795 14.7736 14.0668 15.3183C14.9232 16.5521 16.1049 17.5242 17.4805 18.1268C17.8679 18.2962 18.1584 18.3325 18.4126 17.9331C18.5216 17.7757 18.6668 17.6425 18.7879 17.4973C19.49 16.6136 19.2721 16.6257 20.3858 17.1099C20.7405 17.2588 21.0843 17.4331 21.4147 17.6304C21.7416 17.8241 22.2379 18.0299 22.3105 18.3204C22.3804 18.6356 22.362 18.964 22.2574 19.2694C22.1527 19.5748 21.9659 19.8454 21.7174 20.0515Z" fill="black"/>
</g>
</svg>
